<?xml version="1.0" encoding="utf-8"?>
<svg xmlns="http://www.w3.org/2000/svg" xmlns:xlink="http://www.w3.org/1999/xlink" style="margin: auto; background-image: none; display: block; shape-rendering: auto;" width="227px" height="227px" viewBox="0 0 100 100" preserveAspectRatio="xMidYMid">
<g transform="rotate(0 50 50)">
  <rect x="47.5" y="23.5" rx="2.5" ry="6.5" width="5" height="13" fill="#eb4d3d">
    <animate attributeName="opacity" values="1;0" keyTimes="0;1" dur="1.5873015873015872s" begin="-1.4652014652014653s" repeatCount="indefinite"></animate>
  </rect>
</g><g transform="rotate(27.692307692307693 50 50)">
  <rect x="47.5" y="23.5" rx="2.5" ry="6.5" width="5" height="13" fill="#eb4d3d">
    <animate attributeName="opacity" values="1;0" keyTimes="0;1" dur="1.5873015873015872s" begin="-1.3431013431013432s" repeatCount="indefinite"></animate>
  </rect>
</g><g transform="rotate(55.38461538461539 50 50)">
  <rect x="47.5" y="23.5" rx="2.5" ry="6.5" width="5" height="13" fill="#eb4d3d">
    <animate attributeName="opacity" values="1;0" keyTimes="0;1" dur="1.5873015873015872s" begin="-1.221001221001221s" repeatCount="indefinite"></animate>
  </rect>
</g><g transform="rotate(83.07692307692308 50 50)">
  <rect x="47.5" y="23.5" rx="2.5" ry="6.5" width="5" height="13" fill="#eb4d3d">
    <animate attributeName="opacity" values="1;0" keyTimes="0;1" dur="1.5873015873015872s" begin="-1.098901098901099s" repeatCount="indefinite"></animate>
  </rect>
</g><g transform="rotate(110.76923076923077 50 50)">
  <rect x="47.5" y="23.5" rx="2.5" ry="6.5" width="5" height="13" fill="#eb4d3d">
    <animate attributeName="opacity" values="1;0" keyTimes="0;1" dur="1.5873015873015872s" begin="-0.9768009768009769s" repeatCount="indefinite"></animate>
  </rect>
</g><g transform="rotate(138.46153846153845 50 50)">
  <rect x="47.5" y="23.5" rx="2.5" ry="6.5" width="5" height="13" fill="#eb4d3d">
    <animate attributeName="opacity" values="1;0" keyTimes="0;1" dur="1.5873015873015872s" begin="-0.8547008547008548s" repeatCount="indefinite"></animate>
  </rect>
</g><g transform="rotate(166.15384615384616 50 50)">
  <rect x="47.5" y="23.5" rx="2.5" ry="6.5" width="5" height="13" fill="#eb4d3d">
    <animate attributeName="opacity" values="1;0" keyTimes="0;1" dur="1.5873015873015872s" begin="-0.7326007326007327s" repeatCount="indefinite"></animate>
  </rect>
</g><g transform="rotate(193.84615384615384 50 50)">
  <rect x="47.5" y="23.5" rx="2.5" ry="6.5" width="5" height="13" fill="#eb4d3d">
    <animate attributeName="opacity" values="1;0" keyTimes="0;1" dur="1.5873015873015872s" begin="-0.6105006105006106s" repeatCount="indefinite"></animate>
  </rect>
</g><g transform="rotate(221.53846153846155 50 50)">
  <rect x="47.5" y="23.5" rx="2.5" ry="6.5" width="5" height="13" fill="#eb4d3d">
    <animate attributeName="opacity" values="1;0" keyTimes="0;1" dur="1.5873015873015872s" begin="-0.48840048840048844s" repeatCount="indefinite"></animate>
  </rect>
</g><g transform="rotate(249.23076923076923 50 50)">
  <rect x="47.5" y="23.5" rx="2.5" ry="6.5" width="5" height="13" fill="#eb4d3d">
    <animate attributeName="opacity" values="1;0" keyTimes="0;1" dur="1.5873015873015872s" begin="-0.36630036630036633s" repeatCount="indefinite"></animate>
  </rect>
</g><g transform="rotate(276.9230769230769 50 50)">
  <rect x="47.5" y="23.5" rx="2.5" ry="6.5" width="5" height="13" fill="#eb4d3d">
    <animate attributeName="opacity" values="1;0" keyTimes="0;1" dur="1.5873015873015872s" begin="-0.24420024420024422s" repeatCount="indefinite"></animate>
  </rect>
</g><g transform="rotate(304.61538461538464 50 50)">
  <rect x="47.5" y="23.5" rx="2.5" ry="6.5" width="5" height="13" fill="#eb4d3d">
    <animate attributeName="opacity" values="1;0" keyTimes="0;1" dur="1.5873015873015872s" begin="-0.12210012210012211s" repeatCount="indefinite"></animate>
  </rect>
</g><g transform="rotate(332.3076923076923 50 50)">
  <rect x="47.5" y="23.5" rx="2.5" ry="6.5" width="5" height="13" fill="#eb4d3d">
    <animate attributeName="opacity" values="1;0" keyTimes="0;1" dur="1.5873015873015872s" begin="0s" repeatCount="indefinite"></animate>
  </rect>
</g>
<!-- [ldio] generated by https://loading.io/ --></svg>